PathFileType	4	(X/Y/Z)	/Users/itak/Documents/Research/Walk-IL/dataset/trc/00035_00004.trc
DataRate	CameraRate	NumFrames	NumMarkers	Units	OrigDataRate	OrigDataStartFrame	OrigNumFrames
100.000000	100.000000	4	53	mm	100.000000	207	829
Frame#	Time	RPSI			LPSI			L3			STRN			T10			C7			CLAV			RBAK			LBAK			LSHO			LUPA			LAEL			LAOL			LWTS			LWPS			LFRA			LIFD			LHPS			LHTS			RSHO			RUPA			RAEL			RAOL			RWTS			RWPS			RFRA			RIFD			RHTS			RHPS			RBHD			LFHD			RFHD			LBHD			LHIP			RHIP			RASI			LASI			LKNE			LTHI			LANK			LTIP			LTOE			LMT1			LMT5			LHEE			RKNE			RTHI			RANK			RTIP			RTOE			RMT1			RMT5			RHEE			
		X1	Y1	Z1	X2	Y2	Z2	X3	Y3	Z3	X4	Y4	Z4	X5	Y5	Z5	X6	Y6	Z6	X7	Y7	Z7	X8	Y8	Z8	X9	Y9	Z9	X10	Y10	Z10	X11	Y11	Z11	X12	Y12	Z12	X13	Y13	Z13	X14	Y14	Z14	X15	Y15	Z15	X16	Y16	Z16	X17	Y17	Z17	X18	Y18	Z18	X19	Y19	Z19	X20	Y20	Z20	X21	Y21	Z21	X22	Y22	Z22	X23	Y23	Z23	X24	Y24	Z24	X25	Y25	Z25	X26	Y26	Z26	X27	Y27	Z27	X28	Y28	Z28	X29	Y29	Z29	X30	Y30	Z30	X31	Y31	Z31	X32	Y32	Z32	X33	Y33	Z33	X34	Y34	Z34	X35	Y35	Z35	X36	Y36	Z36	X37	Y37	Z37	X38	Y38	Z38	X39	Y39	Z39	X40	Y40	Z40	X41	Y41	Z41	X42	Y42	Z42	X43	Y43	Z43	X44	Y44	Z44	X45	Y45	Z45	X46	Y46	Z46	X47	Y47	Z47	X48	Y48	Z48	X49	Y49	Z49	X50	Y50	Z50	X51	Y51	Z51	X52	Y52	Z52	X53	Y53	Z53	

208	2.07	196.9915313720703	1018.035583496094	896.2260131835938	198.4624176025391	1024.678466796875	1057.572265625	202.3064270019531	1091.095336914062	987.2891235351562	-35.9281120300293	1259.947998046875	940.7470703125	214.0119934082031	1235.313232421875	998.67138671875	135.4752807617188	1496.433349609375	982.1555786132812	-4.466409206390381	1388.445190429688	942.5656127929688	221.2993316650391	1360.447998046875	930.35986328125	131.3051147460938	1465.303588867188	1083.06591796875	13.49176025390625	1466.2099609375	1126.592163085938	33.0632209777832	1354.819458007812	1225.920288085938	40.75868606567383	1142.205444335938	1280.154296875	123.6103515625	1125.6279296875	1214.588623046875	-43.14949798583984	899.0401611328125	1190.614501953125	4.886948585510254	878.4221801757812	1261.700317382812	17.11728286743164	1027.4375	1282.044189453125	-83.01686096191406	718.70849609375	1158.716674804688	-36.55142974853516	792.943603515625	1243.708618164062	-80.01206970214844	809.61962890625	1190.744262695312	114.8315353393555	1461.52294921875	796.28271484375	158.5036468505859	1392.532470703125	740.3801879882812	249.5905303955078	1138.598876953125	751.562255859375	214.2889709472656	1110.115966796875	841.1017456054688	143.8302459716797	866.384033203125	738.7521362304688	230.5325622558594	857.1145629882812	706.075927734375	253.8348236083984	1060.532836914062	735.3876342773438	135.3026123046875	680.0286254882812	754.9990844726562	126.8457641601562	755.4719848632812	718.6635131835938	199.2715148925781	753.0009155273438	695.5499877929688	-4.350934505462646	1668.5673828125	1002.036804199219	-8.782511711120605	1651.871948242188	783.4482421875	-89.115478515625	1658.421508789062	840.5784301757812	108.4774780273438	1656.155639648438	913.1934204101562	110.7966842651367	928.4984130859375	1169.798583984375	75.85129547119141	904.8079223632812	798.318359375	-19.66273307800293	942.7926025390625	874.001953125	-13.7263126373291	964.796630859375	1109.532836914062	147.6697998046875	490.8075866699219	1161.795654296875	144.4068603515625	632.6842041015625	1179.743041992188	398.0641479492188	57.455078125	1184.206420898438	302.3661499023438	290.4020080566406	1186.833740234375	180.7447052001953	40.00655746459961	1120.133911132812	239.6328582763672	50.20664215087891	1105.094848632812	275.8915710449219	36.5356559753418	1207.939331054688	466.7955017089844	77.58664703369141	1132.423706054688	-91.97882843017578	524.573486328125	782.168701171875	18.65465354919434	764.6072998046875	781.5626220703125	-212.4739990234375	41.86957931518555	824.66845703125	-119.1989974975586	398.2227783203125	783.6834716796875	-384.5147399902344	128.6670989990234	693.5733032226562	-365.4127197265625	113.934944152832	759.2755737304688	-291.2351684570312	84.22990417480469	705.492431640625	-208.3170318603516	32.66336441040039	894.8439331054688	
209	2.08	189.1650695800781	1017.566833496094	892.033203125	189.9243621826172	1024.382690429688	1053.3720703125	193.9432830810547	1090.584350585938	982.9403076171875	-44.14341354370117	1259.002563476562	934.4353637695312	205.6479949951172	1234.865234375	993.8890991210938	126.8400115966797	1495.845581054688	975.9473876953125	-12.82752990722656	1387.527099609375	935.8695678710938	212.9350433349609	1359.730346679688	925.08349609375	122.0912780761719	1465.067260742188	1076.988891601562	4.019433975219727	1465.932250976562	1119.798706054688	23.19241523742676	1354.767944335938	1219.48486328125	30.95629692077637	1142.367553710938	1274.287841796875	114.2277679443359	1125.8076171875	1209.263427734375	-51.61846542358398	898.5250244140625	1185.334838867188	-3.823805809020996	878.3724975585938	1256.753295898438	7.699045658111572	1027.515869140625	1276.538818359375	-90.61788940429688	717.8756713867188	1154.001220703125	-44.81135177612305	792.6356811523438	1239.017944335938	-88.06813812255859	808.8914794921875	1185.682739257812	107.2078628540039	1460.267456054688	790.0817260742188	151.2618865966797	1391.120849609375	734.6569213867188	242.5636291503906	1137.353393554688	747.1505126953125	206.7144775390625	1109.087768554688	836.5784912109375	137.3244781494141	864.9151000976562	734.4439697265625	224.3647766113281	855.7440795898438	702.4061889648438	247.0736389160156	1059.2998046875	731.2626953125	129.1347045898438	678.6085205078125	751.3355102539062	120.8462448120117	753.9315185546875	714.727783203125	193.3999481201172	751.5302734375	692.0582885742188	-12.84749507904053	1667.855224609375	994.8545532226562	-15.19950771331787	1651.10400390625	776.2222900390625	-96.08717346191406	1657.959228515625	832.5498657226562	100.7906875610352	1655.068481445312	907.08935546875	102.2909164428711	928.2638549804688	1165.58349609375	68.47269439697266	903.888427734375	793.995361328125	-27.28401565551758	941.6716918945312	869.2807006835938	-22.2210807800293	964.2841796875	1104.832763671875	140.8658294677734	490.7476196289062	1160.016357421875	136.9459533691406	632.83447265625	1177.1162109375	397.2206726074219	60.21702575683594	1185.033813476562	298.1178588867188	292.0628662109375	1186.349853515625	180.6823425292969	39.99370193481445	1120.130737304688	239.3437347412109	50.62868881225586	1105.352783203125	275.2870788574219	36.51601791381836	1208.099243164062	465.8093872070312	81.68389129638672	1133.426025390625	-98.76638793945312	523.5647583007812	777.3291015625	11.32544136047363	763.9639282226562	777.5294799804688	-214.5659942626953	40.41012191772461	823.3280639648438	-125.1161575317383	396.7810363769531	779.5704956054688	-387.2749938964844	122.4905242919922	690.83935546875	-368.3539733886719	108.717170715332	756.6712036132812	-293.4098205566406	79.82498931884766	703.5216064453125	-210.4715270996094	32.23427581787109	893.5597534179688	
210	2.09	181.3281402587891	1017.426574707031	887.8196411132812	181.1192626953125	1024.338134765625	1049.162475585938	185.4091033935547	1090.318969726562	978.5531616210938	-52.53652572631836	1258.26123046875	927.8580932617188	197.1461944580078	1234.69287109375	988.990234375	117.9928588867188	1495.482666015625	969.5040893554688	-21.35683822631836	1386.822143554688	928.9010009765625	204.4150695800781	1359.268432617188	919.640869140625	112.6447525024414	1465.076538085938	1070.678588867188	-5.698363780975342	1465.885864257812	1112.731689453125	13.0990629196167	1354.971923828125	1212.78759765625	21.01858711242676	1142.814697265625	1268.208618164062	104.7026519775391	1126.287475585938	1203.724487304688	-60.11966705322266	898.2315063476562	1179.931884765625	-12.5609884262085	878.5924072265625	1251.678833007812	-1.79936957359314	1027.878662109375	1270.857421875	-98.14888000488281	717.236083984375	1149.238647460938	-53.04087829589844	792.558837890625	1234.218505859375	-96.12781524658203	808.3732299804688	1180.52978515625	99.43321990966797	1459.22314453125	783.6619262695312	143.8844146728516	1389.9111328125	728.7333984375	235.3422393798828	1136.310180664062	742.5463256835938	198.9431304931641	1108.268798828125	831.86767578125	130.6422424316406	863.6566162109375	730.004638671875	217.9924468994141	854.5714111328125	698.5918579101562	240.1161193847656	1058.262084960938	726.96484375	122.7973861694336	677.3961791992188	747.596923828125	114.6559295654297	752.576171875	710.6800537109375	187.3272094726562	750.252685546875	688.4521484375	-21.52013969421387	1667.363525390625	987.4275512695312	-21.79264450073242	1650.554443359375	768.770263671875	-103.2244262695312	1657.717041015625	824.2924194335938	92.9144287109375	1654.19873046875	900.7421875	93.40702056884766	928.1281127929688	1161.216430664062	61.24220657348633	903.3073120117188	789.4596557617188	-34.91719436645508	940.7783203125	864.2191162109375	-30.98272895812988	963.9039916992188	1099.818359375	133.6454010009766	490.7900695800781	1158.072875976562	129.0073699951172	633.067138671875	1174.326538085938	396.2187805175781	63.30451965332031	1185.995239257812	293.5265502929688	293.9532470703125	1185.882080078125	180.6252136230469	40.01483154296875	1120.146362304688	239.0202941894531	51.14799880981445	1105.67041015625	274.6103210449219	36.58127593994141	1208.293823242188	464.6108093261719	86.24323272705078	1134.605224609375	-105.45947265625	522.7791748046875	772.4175415039062	4.124502182006836	763.5519409179688	773.1586303710938	-216.0851287841797	39.27577590942383	822.5546875	-130.8838653564453	395.5410766601562	775.4762573242188	-389.6063537597656	115.6670608520508	688.4884033203125	-370.8921508789062	103.0762405395508	754.4581298828125	-295.0910949707031	75.10940551757812	702.044677734375	-212.1134796142578	32.28442764282227	892.828125	
211	2.1	173.5144348144531	1017.624633789062	883.6182861328125	172.0463409423828	1024.552490234375	1044.966430664062	176.7255706787109	1090.311645507812	974.1564331054688	-61.08879089355469	1257.724365234375	921.0110473632812	188.5037078857422	1234.807250976562	983.9918823242188	108.9350128173828	1495.347534179688	962.8401489257812	-30.04071044921875	1386.33447265625	921.658935546875	195.7633514404297	1359.067993164062	914.05615234375	102.9608688354492	1465.340209960938	1064.141723632812	-15.67366600036621	1466.071899414062	1105.386962890625	2.768830299377441	1355.439453125	1205.829223632812	10.95014190673828	1143.560791015625	1261.924560546875	95.01773834228516	1127.080078125	1197.975830078125	-68.63737487792969	898.1723022460938	1174.416870117188	-21.3060417175293	879.0956420898438	1246.48046875	-11.36057758331299	1028.536499023438	1265.0087890625	-105.5999603271484	716.813720703125	1144.4423828125	-61.23099136352539	792.7437744140625	1229.310180664062	-104.1769485473633	808.088134765625	1175.294799804688	91.52684783935547	1458.3974609375	777.03515625	136.3940124511719	1388.913452148438	722.6228637695312	227.9599914550781	1135.482666015625	737.7625122070312	191.0049133300781	1107.666259765625	826.9811401367188	123.7915954589844	862.6257934570312	725.4313354492188	211.4244384765625	853.6073608398438	694.6342163085938	232.9877777099609	1057.428955078125	722.5035400390625	116.2865905761719	676.4102783203125	743.7650756835938	108.2682800292969	751.4288940429688	706.506591796875	181.050048828125	749.18408203125	684.723388671875	-30.35882568359375	1667.092163085938	979.7570190429688	-28.5522346496582	1650.225219726562	761.0972900390625	-110.5126800537109	1657.692504882812	815.8133544921875	84.86176300048828	1653.545776367188	894.1577758789062	84.13058471679688	928.0877685546875	1156.706176757812	54.19733428955078	903.0982055664062	784.7191162109375	-42.53433990478516	940.1253662109375	858.8070678710938	-40.00954818725586	963.6524047851562	1094.473266601562	125.967903137207	490.919921875	1155.945556640625	120.5546035766602	633.3632202148438	1171.365478515625	395.0207824707031	66.72418212890625	1187.082885742188	288.5472412109375	296.073486328125	1185.430908203125	180.5765075683594	40.07697296142578	1120.1845703125	238.6685028076172	51.76270294189453	1106.042602539062	273.8504333496094	36.74587631225586	1208.530639648438	463.145263671875	91.272705078125	1135.964721679688	-112.0400924682617	522.2443237304688	767.4349975585938	-2.896886587142944	763.3892822265625	768.4279174804688	-217.1900939941406	38.48240280151367	822.1256103515625	-136.5268096923828	394.5524291992188	771.3565673828125	-391.6167297363281	108.5169219970703	686.4029541015625	-373.1289978027344	97.27147674560547	752.5004272460938	-296.4193725585938	70.29835510253906	700.8825073242188	-213.4191131591797	32.76906204223633	892.429931640625	
